<svg width="24" height="24" viewBox="0 0 24 24" fill="none" xmlns="http://www.w3.org/2000/svg">
<path d="M16.0254 20.5703L16.0257 17.3566C16.0259 15.5814 14.5869 14.1422 12.8117 14.1422H5.61444C3.83951 14.1422 2.40059 15.581 2.40039 17.3559L2.40002 20.5703M21.5997 20.5705L21.6 17.3567C21.6002 15.5816 20.1612 14.1424 18.386 14.1424M15.4064 4.06012C16.1957 4.64576 16.7072 5.58461 16.7072 6.64294C16.7072 7.70127 16.1957 8.64013 15.4064 9.22577M12.4938 6.64277C12.4938 8.41784 11.0548 9.85682 9.27977 9.85682C7.50469 9.85682 6.06571 8.41784 6.06571 6.64277C6.06571 4.86769 7.50469 3.42871 9.27977 3.42871C11.0548 3.42871 12.4938 4.86769 12.4938 6.64277Z" stroke="black" stroke-width="2" stroke-linecap="round" stroke-linejoin="round"/>
</svg>
